:SAMPLES-PER-SECOND 30
:FULLY-SPECIFIED
:DEGREES
316
root  7.260177642 37.20400052 3.039644459 -172.7650146 -69.85079956 165.098999
lowerback  10.50730038 4.038030148 3.45675993
upperback  3.519550085 5.61398983 3.037329912
thorax  -2.17256999 2.712980032 0.5374169946
lowerneck  -6.511650085 7.37691021 3.1954
upperneck  19.82110023 8.33701992 5.116189957
head  7.057139874 4.536990166 1.769979954
lclavicle  0 -9.442270133e-015 7.951389973e-016
lhumerus  5.720729828 -7.018680096 85.79329681
lradius  2.452836947e-031 -2.540164355e-031 133.9980011
lwrist  -7.062250077e-031 4.413906298e-031 39.25540161
lhand  -1.496451383e-031 -27.76390076 20.11240005
lfingers  90 7.125020027 -90
lthumb  89.89689403 5.08795885 91.16245106
rclavicle  0 -9.442270133e-015 7.951389973e-016
rhumerus  32.67630005 34.42829895 -78.09919739
rradius  -9.369988604e-032 3.404537733e-031 105.3880005
rwrist  0 7.062250077e-031 -70.45500183
rhand  -7.920061211e-032 -33.2840004 9.303460121
rfingers  -90 -7.125020027 -90
rthumb  -92.93752616 -24.25625642 -97.11982154
rfemur  -4.406280041 10.91689968 -2.622629881
rtibia  -0 0 52.97740173
rfoot  -0 -26.29000092 -8.176879883
rtoes  5.373923086 19.29304026 -105.8922705
lfemur  -15.78499985 -0.3257550001 -5.083889961
ltibia  -0 0 55.74209976
lfoot  4.554607604e-032 -14.27859974 0.4514400065
ltoes  -4.250644065 -19.5611806 -102.515957
317
root  7.378421994 37.33244468 3.146666617 -172.4160156 -69.22660065 165.1229858
lowerback  10.71000004 4.172810078 3.755000114
upperback  3.839339972 5.79723978 3.144239902
thorax  -1.928179979 2.80050993 0.4629299939
lowerneck  -6.002349854 7.415880203 3.543400049
upperneck  19.86289978 8.422539711 4.734570026
head  7.01609993 4.563469887 1.580440044
lclavicle  0 -9.442270133e-015 7.951389973e-016
lhumerus  6.964640141 -5.915430069 84.63089752
lradius  2.458107572e-031 -2.535064339e-031 134.1170044
lwrist  -7.062250077e-031 8.827812596e-032 39.9192009
lhand  -1.496451383e-031 -27.76390076 20.11240005
lfingers  90 7.125020027 -90
lthumb  89.89689403 5.08795885 91.16245106
rclavicle  0 -9.442270133e-015 7.951389973e-016
rhumerus  34.38639832 33.97819901 -77.33100128
rradius  -9.097546635e-032 3.411918887e-031 104.9300003
rwrist  3.531125038e-031 7.062250077e-031 -71.41429901
rhand  -7.920061211e-032 -33.2840004 9.303460121
rfingers  -90 -7.125020027 -90
rthumb  -92.93752616 -24.25625642 -97.11982154
rfemur  -5.241270065 11.1303997 -3.146270037
rtibia  -0 0 52.55080032
rfoot  -0 -25.41609955 -7.765389919
rtoes  5.373923086 19.29304026 -105.8922705
lfemur  -17.11770058 -0.1687269956 -5.170119762
ltibia  -0 0 56.90919876
lfoot  4.518943924e-032 -12.37759972 0.2503660023
ltoes  -4.250644065 -19.5611806 -102.515957
318
root  7.522355478 37.476445 3.264444456 -173.1110229 -68.58319855 166.1829834
lowerback  11.17630005 4.292409897 4.354990005
upperback  4.177410126 5.997260094 3.429330111
thorax  -1.792670012 2.889729977 0.3860360086
lowerneck  -5.535809994 7.439829826 3.781689882
upperneck  20.09690094 8.494139671 4.338610172
head  7.040510178 4.575500011 1.410060048
lclavicle  0 -9.442270133e-015 7.951389973e-016
lhumerus  8.315279961 -4.673930168 83.51339722
lradius  2.466853344e-031 -2.526554693e-031 134.3150024
lwrist  -7.062250077e-031 4.413906298e-031 40.57939911
lhand  -1.496451383e-031 -27.76390076 20.11240005
lfingers  90 7.125020027 -90
lthumb  89.89689403 5.08795885 91.16245106
rclavicle  0 -9.442270133e-015 7.951389973e-016
rhumerus  36.28820038 33.4612999 -76.59649658
rradius  -8.759461813e-032 3.420754643e-031 104.362999
rwrist  3.531125038e-031 7.062250077e-031 -72.34390259
rhand  -7.920061211e-032 -33.2840004 9.303460121
rfingers  -90 -7.125020027 -90
rthumb  -92.93752616 -24.25625642 -97.11982154
rfemur  -6.23913002 11.30360031 -3.297460079
rtibia  -0 0 52.27000046
rfoot  -9.691677695e-032 -24.37479973 -6.785699844
rtoes  5.373923086 19.29304026 -105.8922705
lfemur  -18.37630081 -0.02180960029 -4.765130043
ltibia  -0 0 57.91239929
lfoot  4.483320397e-032 -10.09539986 -0.4368019998
ltoes  -4.250644065 -19.5611806 -102.515957
319
root  7.674466531 37.63222281 3.39860015 -174.2310181 -67.8470993 167.5310059
lowerback  11.95359993 4.387849808 4.958390236
upperback  4.557079792 6.17757988 3.887310028
thorax  -1.796949983 2.959219933 0.4655840099
lowerneck  -5.018000126 7.479390144 3.601929903
upperneck  20.36680031 8.619029999 4.066830158
head  7.039199829 4.593359947 1.346320033
lclavicle  0 -9.442270133e-015 7.951389973e-016
lhumerus  9.702569962 -3.321019888 82.4375
lradius  2.476096685e-031 -2.517496622e-031 134.5249939
lwrist  -7.062250077e-031 8.827812596e-031 41.50839996
lhand  -1.496451383e-031 -27.76390076 20.11240005
lfingers  90 7.125020027 -90
lthumb  89.89689403 5.08795885 91.16245106
rclavicle  0 -9.442270133e-015 7.951389973e-016
rhumerus  38.38499832 33.06169891 -75.65570068
rradius  -8.394780966e-032 3.429886377e-031 103.7529984
rwrist  7.062250077e-031 -0 -73.24430084
rhand  -7.920061211e-032 -33.2840004 9.303460121
rfingers  -90 -7.125020027 -90
rthumb  -92.93752616 -24.25625642 -97.11982154
rfemur  -7.250500202 11.45800018 -3.365880013
rtibia  -0 0 52.08229828
rfoot  -9.600207392e-032 -23.14049911 -5.387899876
rtoes  5.373923086 19.29304026 -105.8922705
lfemur  -19.3757 0.09774020314 -4.218349934
ltibia  -0 0 58.7181015
lfoot  4.454205019e-032 -7.713049889 -1.319249988
ltoes  -4.250644065 -19.5611806 -102.515957
